<svg xmlns="http://www.w3.org/2000/svg" viewBox="0 0 980 980" fill="none" shape-rendering="auto"><metadata xmlns:rdf="http://www.w3.org/1999/02/22-rdf-syntax-ns#" xmlns:xsi="http://www.w3.org/2001/XMLSchema-instance" xmlns:dc="http://purl.org/dc/elements/1.1/" xmlns:dcterms="http://purl.org/dc/terms/"><rdf:RDF><rdf:Description><dc:title>Lorelei</dc:title><dc:creator>Lisa Wischofsky</dc:creator><dc:source xsi:type="dcterms:URI">https://www.figma.com/community/file/1198749693280469639</dc:source><dcterms:license xsi:type="dcterms:URI">https://creativecommons.org/publicdomain/zero/1.0/</dcterms:license><dc:rights>Remix of „Lorelei” (https://www.figma.com/community/file/1198749693280469639) by „Lisa Wischofsky”, licensed under „CC0 1.0” (https://creativecommons.org/publicdomain/zero/1.0/)</dc:rights></rdf:Description></rdf:RDF></metadata><mask id="viewboxMask"><rect width="980" height="980" rx="0" ry="0" x="0" y="0" fill="#fff" /></mask><g mask="url(#viewboxMask)"><rect fill="#ffd5dc" width="980" height="980" x="0" y="0" /><g transform="translate(10 -60)"><path d="M486 236c57-2 115 18 159 56a209 209 0 0 1 73 190c-1 4-1 8-4 12l-1-3v-33a215 215 0 0 0-172-206 235 235 0 0 0-270 153c-12 37-14 78-6 116 6-2 12-2 17-2 2 1 5 1 6 3s0 3-1 4l-12 4c-14 3-27 8-37 18a63 63 0 0 0-22 45c0 12 3 24 8 35 8 13 19 24 33 31 18 10 41 13 62 7 2-1 4-2 6-1s3 4 4 6l15 30a215 215 0 0 0 72 63c28 15 59 21 90 26 3 1 8 1 10 4 1 2 0 3-2 4l-11 1a231 231 0 0 1-147-62c5 18 8 36 8 54 0 12-2 23-6 34-5 10-11 18-19 26a196 196 0 0 1-60 43c-1-1 1-2 2-3l17-14c13-12 25-23 35-38a93 93 0 0 0 17-65l-4-39-2-10-12-17c-5-10-11-20-13-31a93 93 0 0 1-96-31 81 81 0 0 1-19-51c0-12 3-23 8-34 9-16 23-29 40-36-8-31-8-62-3-93 8-40 26-77 51-108 45-54 115-87 186-88Z" fill="#000"/><path d="M541 252a214 214 0 0 1 172 206v33c-1 5-2 10-1 15-2 2-3 3-3 5-3 18-1 37 1 55 4 29 6 59 2 88-3 28-13 56-30 79-16 21-38 34-62 43-15 6-30 9-45 13-11 2-22 4-32 8 1 2 4 1 6 2 12 1 24-1 36-2-5 8-8 17-9 26-2 10 2 19 9 26 6 7 15 11 24 14 5 2 11 3 17 3 7 9 13 18 14 30 2 12-1 24-8 34-9 14-22 23-37 30-18 9-38 15-57 18a352 352 0 0 1-192-23c-18-10-38-23-48-42-4-7-8-16-6-24 18-10 33-23 47-38 8-8 14-16 19-26 4-11 6-22 6-34 0-18-3-36-8-54a235 235 0 0 0 147 62l11-1c2-1 3-2 2-4-2-3-7-3-10-4-31-5-62-11-90-26-18-10-36-22-50-37-8-8-16-17-22-26l-15-30c-1-2-2-5-4-6s-4 0-6 1a82 82 0 0 1-95-38c-5-11-8-23-8-35 1-17 9-34 22-45 10-10 23-15 37-18l12-4c1-1 2-2 1-4s-4-2-6-3c-5 0-11 0-17 2-8-38-6-79 6-116a236 236 0 0 1 270-153Z" fill="#ffffff"/><path d="m712 506 3 3 1 13 3 45c3 20 5 40 5 60 0 16-1 32-5 47-6 28-20 56-40 76a174 174 0 0 1-88 46c-1 9-4 16-4 25-1 6 2 10 5 15 8 8 18 14 28 19l18 9c-3 3-8 1-12 2-6 0-12-1-17-3-9-3-18-7-24-14-7-7-11-16-9-26 1-9 4-18 9-26-12 1-24 3-36 2-2-1-5 0-6-2 10-4 21-6 32-8 15-4 30-7 45-13 24-9 46-22 62-43 17-23 27-51 30-79 4-29 2-59-2-88-2-18-4-37-1-55 0-2 1-3 3-5ZM262 566c6 0 12 1 15 6 2 3 2 7 1 10-3 8-9 14-11 22-1 4 0 7 3 9 7 5 16 7 24 10l-2 2h-11c-6-1-12-2-17-5-5-4-9-11-7-18 2-9 9-15 12-23-7-4-14-2-20-8 3-4 8-6 13-5Z" fill="#000"/><path d="M681 473c6 2 13 7 15 14 2 4 1 9-3 12-5 2-10 0-12-4-3-3-7-7-12-8-4-1-9 0-13 2l4 5c4 6 5 14 5 21s-2 14-4 20c3-1 6-4 10-4 0 4 0 7-2 10-5 6-13 10-21 11s-17 2-24-3c-5-3-5-8-5-13l-2-6c0-10 4-19 9-27 7-11 17-20 29-26 8-4 17-6 26-4ZM473 519c14 2 28 6 42 11 3 1 6 1 8 4 4 3 4 9 0 12-3 2-7 2-11 2h-45c-13 0-28 1-41-1l-7-3-14 2c-2 0-5 0-6-2-3-2-2-6 0-8s6-3 9-4c9-2 18-4 27-4l9-1-16-1c-6-1-13 0-19-2-2 0-3-1-3-3s2-2 3-3l15-2c16-1 33 0 49 3Z" fill="#000000"/><path d="M496 375c10 1 20 4 27 11 3 3 5 7 6 11-11-5-22-6-33-6-6 1-12 4-17 7-23 12-43 29-66 41l-20 14-11 11c-1-5 1-10 2-14 4-10 11-17 19-24l24-17c13-9 27-19 41-26 9-4 18-8 28-8ZM701 411c-6 3-11 3-17 4-5 1-10 3-14 6-9 7-17 15-24 24-9 10-17 18-29 24l-7 2c-2 1-4 0-6 2-4 5-4 13-9 17-2 0-2-2-2-3v-13c1-5 3-12 7-16s9-4 13-8l15-10 23-18c6-5 13-10 20-13 10-3 21-3 30 2Z" fill="#000000"/><path d="M216 569c5 0 10-1 14 2 3 2 5 5 4 9-2 4-6 7-11 7h-16c-5-1-9-3-11-7-1-4 2-7 5-9 5-2 10-1 15-2ZM229 592c3 1 7 3 7 7 0 3-1 6-4 7-5 4-11 4-17 6-5 1-10 2-14-1s-3-9 0-12c4-4 8-4 13-5s10-3 15-2ZM301 644h8c3 1 6 4 6 8 0 5-4 9-9 10-5 2-9-2-11-6-1-5 1-11 6-12Z" fill="#000000"/><path d="M597 505h1l3 15 3 26 8 13 6 12c2 5 2 10 5 14 3 5 5 10 5 16 0 9-6 17-14 20l-19 8c-5 3-9 5-15 5-5 0-11 0-13-5-2-2 0-4 2-5l12-3 16-5 13-5c6-2 9-8 7-14l-5-8-7-17-7-19c-4-8-6-17-5-26 0-7 1-15 4-22Z" fill="#000000"/><path d="M607 684c3 2 2 6 1 9-2 8-4 15-9 22-5 5-10 10-17 12-10 4-22 2-31-3-4-2-9-5-11-9-1-1-2-3-1-4 2-2 5-3 8-3 9 1 18 6 27 7 7 1 13-3 17-8 5-6 8-15 12-22 1-2 2-2 4-1Z" fill="#000000"/><path fill-rule="evenodd" clip-rule="evenodd" d="M485 464c18 2 36 4 53 10a1666 1666 0 0 0 38 10c5 1 10 2 15 1a176 176 0 0 1 15-1l8-4 3-2a163 163 0 0 1 85-11l15 2c5 0 9 2 13 3 4 2 7 3 11 3 3 1 6 2 7 4 2 3 0 6-3 7l-9 2h-3c2 18-3 38-11 55-6 11-14 21-25 27-9 6-22 9-33 10-11 0-24-2-34-7-9-4-17-13-21-22a63 63 0 0 1-6-36l3-21-7 1c-7 1-14 2-21 0l-9-1h-4v21c-4 18-13 35-25 49-6 6-13 12-21 16-12 6-25 11-39 14a94 94 0 0 1-75-16c-9-7-18-16-25-27s-10-24-11-37c0-7 1-15 3-22a123 123 0 0 0-11 5h-4c-1-2 0-4 2-5 5-6 13-9 20-12l4-1 28-10a278 278 0 0 1 74-5Zm-57 16h33a553 553 0 0 1 86 13c1 12 0 26-3 38-5 14-15 28-29 36l-22 11c-10 3-21 4-31 5-8 0-17-2-25-5l-22-10c-9-7-17-14-23-23-7-12-10-26-9-39l2-13v-6h1a129 129 0 0 1 36-7h6Zm269 4-21-3a157 157 0 0 0-56 12c-2 6-3 12-3 19-1 9-1 20 2 29 4 8 10 16 18 20 8 3 17 4 25 4 11 0 22-2 30-9 10-8 16-20 19-32 4-12 4-25 5-37l-19-3Z" fill="#000000"/><path d="M473 221a404 404 0 0 1 84 9c11 3 21 5 31 9l35 13c10 3 19 9 29 13l16 6 29 6c5 2 9 5 11 10 3 6 2 12 0 18l10 5c5 5 7 12 5 19-2 4-6 7-10 9a99 99 0 0 1-69 8l-44-10-62-17a239 239 0 0 0-163 3l-4 14c-4 16-7 32-8 48v17l-1 8c-3 7-9 14-13 21-12 18-23 37-32 56l-2 14v39c0 5 2 9-1 13-15-2-30-6-46-10-2 0-5 0-7-2l-7-9c-4-3-5-9-7-14-7-21-9-45-9-68 0-28 5-55 10-82 4-15 10-29 17-42 10-20 24-37 40-52 16-16 35-27 56-35a298 298 0 0 1 112-17ZM288 552c10 0 20 3 29 5 4 1 9 3 12 6 3 2 2 6-1 7-9 3-16 0-24-2-6-2-14-4-20-8-2-1-5-4-3-6s5-2 7-2ZM725 669c1 2 1 3-1 5l1-5Z" fill="#000000"/></g><g transform="translate(10 -60)"></g></g></svg>