<svg xmlns="http://www.w3.org/2000/svg" viewBox="0 0 980 980" fill="none" shape-rendering="auto"><metadata xmlns:rdf="http://www.w3.org/1999/02/22-rdf-syntax-ns#" xmlns:xsi="http://www.w3.org/2001/XMLSchema-instance" xmlns:dc="http://purl.org/dc/elements/1.1/" xmlns:dcterms="http://purl.org/dc/terms/"><rdf:RDF><rdf:Description><dc:title>Lorelei</dc:title><dc:creator>Lisa Wischofsky</dc:creator><dc:source xsi:type="dcterms:URI">https://www.figma.com/community/file/1198749693280469639</dc:source><dcterms:license xsi:type="dcterms:URI">https://creativecommons.org/publicdomain/zero/1.0/</dcterms:license><dc:rights>Remix of „Lorelei” (https://www.figma.com/community/file/1198749693280469639) by „Lisa Wischofsky”, licensed under „CC0 1.0” (https://creativecommons.org/publicdomain/zero/1.0/)</dc:rights></rdf:Description></rdf:RDF></metadata><mask id="viewboxMask"><rect width="980" height="980" rx="0" ry="0" x="0" y="0" fill="#fff" /></mask><g mask="url(#viewboxMask)"><rect fill="#c0aede" width="980" height="980" x="0" y="0" /><g transform="translate(10 -60)"><path d="M533 126c2 2 0 5-1 7-6 16-19 26-34 35-17 12-37 19-57 25l7-1c23-4 47-7 70-14 22-7 43-17 63-27 6-3 11-7 17-9 4-2 8 1 9 5 2 6 0 13-2 19-4 13-11 24-20 33l31 10c28 12 53 28 80 40 13 6 27 13 41 16 11 3 22 4 34 4l16-1c2 1 4 1 4 3 1 5-1 11-3 16-4 10-10 19-17 28-9 13-21 24-35 32 6 9 11 17 19 24 10 11 23 19 37 24l5 2c1 2 0 3-1 4-2 4-6 6-10 8-8 2-16 4-24 4 4 16 4 33-3 48l-8 13c3 14 8 27 17 39 4 6 10 11 15 16l4 4c-2 3-2 6-5 8-5 7-13 11-21 14 15 15 24 35 28 55 2 11 2 24-3 34-1 3-4 7-7 7-1 0-2-1-1-2l1-9c1-8-1-16-3-24-2-11-6-21-12-31l-6-9c5 16 6 32 3 48a84 84 0 0 1-46 66c5 8 12 16 22 20 6 3 13 5 20 6l6 1c2 3-3 5-4 7-5 7-12 12-19 17-14 8-29 12-45 14l14 2c11 1 21-1 31-5 2 0 5-2 6 0s-2 6-4 7c-9 9-22 13-35 14s-27-3-38-10c-3 6-8 11-12 16-7 7-14 13-23 18-14 7-30 11-45 9-9-1-19-4-27-10l-5-7c-14-7-29-15-44-20a149 149 0 0 0-94-2 359 359 0 0 0-66 25c-13 9-28 14-44 15-9 1-19 1-28-4 0-1-3-3-1-3a103 103 0 0 0 58-17c-13 4-26 6-39 6s-27-2-38-10c-3-3-8-6-9-10l15-6 21-9-15-3a99 99 0 0 1-47-35l-4-8c-1 4-2 7-5 10h-3c-8-2-13-8-17-15-6-11-11-23-14-35-3-13-4-27 0-41-7 2-15 2-22 1-9-1-19-4-25-12-2-4-5-8-6-13l1-1 1 1 9 6c6 3 12 3 18 2a69 69 0 0 1-32-59c0-5 1-10 3-14 2-3 7-4 9-1l7 8c5 4 11 8 18 7 5 0 11-1 15-4 5-3 9-8 11-13 3-9 5-17 5-26l-3-42-2-25c0-15-3-29-2-44 0-12 2-24 5-36 2-9 6-17 11-25l17-23c-11-1-23 0-34 3l-19 4c3-12 12-19 21-25l21-11c12-6 26-7 39-4-7-14-6-29-3-44 4-16 12-31 25-42 3-3 9-7 14-6l4-1c1 2-2 5-3 8-3 8-6 17-7 26-2 13-2 27 3 39l3 6 4-9 7-10c6-13 17-22 29-30 15-10 31-18 48-24 14-5 29-7 43-11 13-3 26-8 38-13a280 280 0 0 0 66-34c5-2 9-6 13-10Z" fill="#000000"/><path d="M528 244c41 6 80 22 113 47 28 21 50 49 65 81 13 28 20 60 19 91-1 15-3 30-8 44h-2l1-21c1-30-2-59-13-87-10-30-28-57-50-79-42-40-98-62-156-63a243 243 0 0 0-196 94 207 207 0 0 0-40 139l2 25c8 0 19 0 25 7l-3 3-17 1c-12 1-24 5-33 13a64 64 0 0 0-17 39c-5 32 12 65 39 83 16 10 36 15 55 9 4-2 9-5 14-3 3 1 4 4 5 7a251 251 0 0 0 90 100c8 7 18 13 28 18 18 8 38 14 57 19l32 8c5 1 9 1 13 3l-4 1c-25 2-48-3-72-10-12-3-23-7-34-12a306 306 0 0 1-84-63l2 28c1 17 0 35-6 52-4 12-11 24-19 34-10 10-22 19-34 26-10 7-21 14-32 18l-16 5 9-9 31-20 22-17a95 95 0 0 0 32-56c2-14 2-28 2-43v-27c-10-14-22-29-27-46-17 8-38 7-55-1-17-7-32-19-43-33-12-17-19-36-21-56s2-40 15-56c9-10 22-18 35-21-4-14-6-29-6-44a234 234 0 0 1 83-173 249 249 0 0 1 199-55Z" fill="#000"/><path d="M653 320c22 22 40 49 50 79 11 28 14 57 13 87l-1 21-5 15-2 13 2 56c0 21 1 42-1 63l-3 47c-2 16-7 31-14 45-11 18-26 33-44 44-13 8-27 12-41 16l-38 11-17 3c0 1 1 2 3 2 8 5 17 5 26 4-3 7-4 14-2 22 3 7 11 11 17 14 12 6 24 7 36 9 7 6 14 14 16 24 2 8 2 16-2 23-5 10-14 18-24 23-13 8-27 14-42 18a468 468 0 0 1-222-1c-17-4-33-9-48-17-12-6-23-13-32-22-5-7-9-14-10-23 11-4 22-11 32-18 12-7 24-16 34-26 8-10 15-22 19-34 6-17 7-35 6-52l-2-28 22 23c19 15 40 30 62 40 11 5 22 9 34 12 24 7 47 12 72 10l4-1c-4-2-8-2-13-3l-32-8c-19-5-39-11-57-19l-29-17c-11-9-23-17-33-27a251 251 0 0 1-56-74c-1-3-2-6-5-7-5-2-10 1-14 3-19 6-39 1-55-9a88 88 0 0 1-39-83c1-14 7-28 17-39 9-8 21-12 33-13l17-1 3-3c-6-7-17-7-25-7l-2-25a207 207 0 0 1 40-139 243 243 0 0 1 196-94c58 1 114 23 156 63Z" fill="#ffffff"/><path d="M710 522c3 0 3 4 4 6 3 11 4 23 5 34l2 21c1 22 2 43 1 65-1 21-1 44-5 65a136 136 0 0 1-80 99c-15 7-31 11-48 13v15c1 3 3 4 5 6 12 6 23 8 36 11 12 3 24 5 36 11-3 3-7 4-11 4-7 1-15-1-23-1-12-2-24-3-36-9-6-3-14-7-17-14-2-8-1-15 2-22-9 1-18 1-26-4-2 0-3-1-3-2l17-3 38-11c14-4 28-8 41-16 18-11 33-26 44-44 7-14 12-29 14-45l3-47c2-21 1-42 1-63l-2-56 2-13ZM252 549c8 0 17 1 23 7 5 4 10 9 12 15 1 3 0 6-2 8l-13 8c-7 6-7 19 0 25 6 5 14 8 21 11 2 0 5 1 6 3-1 2-3 3-5 3-10 0-20-3-28-9-5-3-8-8-9-13-2-8-2-17 4-24 4-6 11-9 18-12-4-5-7-11-14-13-7-3-15-3-22-5l9-4Z" fill="#000"/><path d="M473 484c4-2 10-1 13 3 5 4 8 11 8 17 2 10 0 21-4 30-3 6-6 12-13 14-6 2-14-1-17-7-5-6-6-15-6-22 1-8 2-16 6-24 3-5 7-9 13-11ZM643 491c4-2 9-2 13 2 5 4 7 12 7 18 1 9-1 18-5 25-2 5-6 8-11 10-5 1-11-1-14-5-3-3-5-7-6-12-1-9 1-18 4-26 3-5 6-10 12-12Z" fill="#000000"/><path d="M503 394c7 0 14 2 19 6 4 2 7 4 8 8 1 2 0 5-2 6-5 1-10-2-14-3l-9-1c-13-1-26 1-39 4a169 169 0 0 0-60 31c-4 2-9 5-14 4-3 0-3-4-2-7 1-6 7-11 12-16 10-9 23-15 35-20 20-9 44-14 66-12ZM659 396c7-2 14-1 20 3 4 3 8 6 9 11 1 3 1 6-2 7s-7 1-10-1c-5-3-9-6-15-6-5 0-10 1-14 3-8 4-16 11-20 19l-6 9h-3v-6c2-8 7-16 13-22 7-8 17-15 28-17Z" fill="#000000"/><path d="M594 572a37 37 0 0 1 19 29c0 9-5 18-13 22l-17 7c-4 1-6 2-9 0-2-3-1-4 1-6 6-5 15-7 21-12 3-2 5-5 5-9 0-10-5-17-7-26v-5Z" fill="#000000"/><path d="M621 668c2-1 4 1 5 3 2 5 1 11 1 16-1 4-2 8-5 11-1 2-3 2-5 3l-2-7 4-20-30 6c-4 0-9 2-13 4-11 6-20 16-29 23-2 2-5 5-9 6-3 0-5-2-4-5 0-4 4-8 6-11 9-9 20-19 32-23 10-3 18 1 27-2l22-4Z" fill="#000000"/><path d="M604 142c4 3 4 10 3 15-3 16-11 31-22 42 24 6 46 16 68 28l37 19c14 7 29 15 45 19 10 3 21 4 31 4l18-1 7 1v11c-2 7-6 14-10 21-11 18-25 34-43 45l-12 6c13 10 28 21 36 36 2 3 5 8 3 12-4 4-11 5-16 6-10 1-21 2-31 1-18-2-35-5-52-9-26-6-51-14-73-28l10 17c1 2 3 6 0 8-4 3-9 5-14 5a176 176 0 0 1-160-53c-2 11-5 23-9 34-2 6-5 13-10 18l-6 5-14-10c-7-7-12-15-16-24-7 15-17 27-28 40l-23 24-14 13-2 2-6 42c-1 20-1 40 1 60 0 3 1 8-2 10-2 2-5 1-7 0l-17-6c-13-7-25-17-35-28a241 241 0 0 1-34-74 165 165 0 0 1 52-162c-7-5-11-11-13-19a81 81 0 0 1 25-77c4-3 9-7 14-6l5-1-5 13c-6 15-9 31-6 48 1 6 3 13 6 18l5-11c6-7 14-14 22-19 21-14 44-23 67-31 22-7 45-11 68-14 24-4 49-7 72-14 20-7 40-16 60-26 6-3 11-7 17-9 2-2 5-3 8-1Z" fill="#000000"/></g><g transform="translate(10 -60)"><path d="M357 396c9-2 18 4 20 12 1 5 1 12-1 17-3 7-11 10-18 9-9 0-16-9-16-18 0-4 2-7 3-11 3-4 8-8 12-9Z" fill="#000000"/><path d="M358 405c7-2 12 3 13 9 2 8-5 15-13 14-7-2-11-10-8-17 2-3 5-5 8-6Z" fill="#fff"/><path fill-rule="evenodd" clip-rule="evenodd" d="M326 398c-2-4-5-7-9-9-5-1-10 1-14 3-4 1-7 4-9 7-11-4-23 0-30 10-3-4-6-7-10-9-3-1-6 0-9 1l-4 1c-6 1-12 3-16 9-4 7-4 16 0 23 2 5 6 8 11 10-7 1-13 5-17 11l-2-1-9-3c-6 0-12 2-17 6-4 4-8 8-10 13-2 7-1 13 1 20-9 8-13 21-6 32 4 7 10 9 17 11 5 1 11 1 16-1 2 6 6 12 11 15 6 3 14 4 21 1 5-1 10-3 13-8 3-3 3-8 4-12 5-2 9-3 13-7 5-4 9-10 10-16s0-12-2-17c-3-6-9-10-15-12 1-5 2-9 1-14l6 2c2 6 4 11 8 15 7 5 15 7 23 6 6 0 11-4 14-9 2-3 3-7 3-11h1c7 1 14 1 19-4 7-6 9-18 6-27-3-8-9-11-17-14 2-7 2-15-2-22Zm-70 51 2-10-10 6 8 4Z" fill="#000000"/><path d="M236 409c3-2 7-2 10-2 7 2 12 9 11 16 0 6-3 11-8 14-9 5-22-2-22-13 0-6 4-13 9-15ZM309 398c5 0 10 3 12 8 4 6 3 14 1 22 6 2 10 6 12 12 3 5 1 12-3 16-5 4-11 5-17 4-2 7-7 13-14 16-5 1-11 0-15-4-5-4-7-10-8-16-4-1-7-1-10-4-5-4-5-12-2-17l8-6c-3-4-5-10-4-15s4-9 9-10c6-1 11 1 16 5 4-6 8-11 15-11ZM257 460c2 8 0 16-3 23 5 0 9 1 13 4 5 4 7 9 7 15 1 5-1 10-6 13-5 4-12 5-18 5 1 5 2 10-1 14-5 7-15 8-22 5-6-3-10-9-12-16-6 2-13 3-19 2-5-1-9-4-11-8-4-5-4-12 0-17l10-7c-4-7-7-17-4-25 1-5 6-9 12-8 6 0 12 3 17 7 3-7 8-14 16-16 8-3 18 0 21 9Z" fill="#fff"/></g></g></svg>