<svg xmlns="http://www.w3.org/2000/svg" viewBox="0 0 980 980" fill="none" shape-rendering="auto"><metadata xmlns:rdf="http://www.w3.org/1999/02/22-rdf-syntax-ns#" xmlns:xsi="http://www.w3.org/2001/XMLSchema-instance" xmlns:dc="http://purl.org/dc/elements/1.1/" xmlns:dcterms="http://purl.org/dc/terms/"><rdf:RDF><rdf:Description><dc:title>Lorelei</dc:title><dc:creator>Lisa Wischofsky</dc:creator><dc:source xsi:type="dcterms:URI">https://www.figma.com/community/file/1198749693280469639</dc:source><dcterms:license xsi:type="dcterms:URI">https://creativecommons.org/publicdomain/zero/1.0/</dcterms:license><dc:rights>Remix of „Lorelei” (https://www.figma.com/community/file/1198749693280469639) by „Lisa Wischofsky”, licensed under „CC0 1.0” (https://creativecommons.org/publicdomain/zero/1.0/)</dc:rights></rdf:Description></rdf:RDF></metadata><mask id="viewboxMask"><rect width="980" height="980" rx="0" ry="0" x="0" y="0" fill="#fff" /></mask><g mask="url(#viewboxMask)"><rect fill="#b6e3f4" width="980" height="980" x="0" y="0" /><g transform="translate(10 -60)"><path d="M528 244c41 6 80 22 113 47 28 21 50 49 65 81 13 28 20 60 19 91-1 15-3 30-8 44h-2l1-21c1-30-2-59-13-87-10-30-28-57-50-79-42-40-98-62-156-63a243 243 0 0 0-196 94 207 207 0 0 0-40 139l2 25c8 0 19 0 25 7l-3 3-17 1c-12 1-24 5-33 13a64 64 0 0 0-17 39c-5 32 12 65 39 83 16 10 36 15 55 9 4-2 9-5 14-3 3 1 4 4 5 7a251 251 0 0 0 90 100c8 7 18 13 28 18 18 8 38 14 57 19l32 8c5 1 9 1 13 3l-4 1c-25 2-48-3-72-10-12-3-23-7-34-12a306 306 0 0 1-84-63l2 28c1 17 0 35-6 52-4 12-11 24-19 34-10 10-22 19-34 26-10 7-21 14-32 18l-16 5 9-9 31-20 22-17a95 95 0 0 0 32-56c2-14 2-28 2-43v-27c-10-14-22-29-27-46-17 8-38 7-55-1-17-7-32-19-43-33-12-17-19-36-21-56s2-40 15-56c9-10 22-18 35-21-4-14-6-29-6-44a234 234 0 0 1 83-173 249 249 0 0 1 199-55Z" fill="#000"/><path d="M653 320c22 22 40 49 50 79 11 28 14 57 13 87l-1 21-5 15-2 13 2 56c0 21 1 42-1 63l-3 47c-2 16-7 31-14 45-11 18-26 33-44 44-13 8-27 12-41 16l-38 11-17 3c0 1 1 2 3 2 8 5 17 5 26 4-3 7-4 14-2 22 3 7 11 11 17 14 12 6 24 7 36 9 7 6 14 14 16 24 2 8 2 16-2 23-5 10-14 18-24 23-13 8-27 14-42 18a468 468 0 0 1-222-1c-17-4-33-9-48-17-12-6-23-13-32-22-5-7-9-14-10-23 11-4 22-11 32-18 12-7 24-16 34-26 8-10 15-22 19-34 6-17 7-35 6-52l-2-28 22 23c19 15 40 30 62 40 11 5 22 9 34 12 24 7 47 12 72 10l4-1c-4-2-8-2-13-3l-32-8c-19-5-39-11-57-19l-29-17c-11-9-23-17-33-27a251 251 0 0 1-56-74c-1-3-2-6-5-7-5-2-10 1-14 3-19 6-39 1-55-9a88 88 0 0 1-39-83c1-14 7-28 17-39 9-8 21-12 33-13l17-1 3-3c-6-7-17-7-25-7l-2-25a207 207 0 0 1 40-139 243 243 0 0 1 196-94c58 1 114 23 156 63Z" fill="#ffffff"/><path d="M710 522c3 0 3 4 4 6 3 11 4 23 5 34l2 21c1 22 2 43 1 65-1 21-1 44-5 65a136 136 0 0 1-80 99c-15 7-31 11-48 13v15c1 3 3 4 5 6 12 6 23 8 36 11 12 3 24 5 36 11-3 3-7 4-11 4-7 1-15-1-23-1-12-2-24-3-36-9-6-3-14-7-17-14-2-8-1-15 2-22-9 1-18 1-26-4-2 0-3-1-3-2l17-3 38-11c14-4 28-8 41-16 18-11 33-26 44-44 7-14 12-29 14-45l3-47c2-21 1-42 1-63l-2-56 2-13ZM252 549c8 0 17 1 23 7 5 4 10 9 12 15 1 3 0 6-2 8l-13 8c-7 6-7 19 0 25 6 5 14 8 21 11 2 0 5 1 6 3-1 2-3 3-5 3-10 0-20-3-28-9-5-3-8-8-9-13-2-8-2-17 4-24 4-6 11-9 18-12-4-5-7-11-14-13-7-3-15-3-22-5l9-4Z" fill="#000"/><path d="M642 509c6-1 10 2 13 7 3 7 3 17-1 24-3 5-10 8-16 5-5-3-6-8-7-13-1-4 0-10 2-14s5-8 9-9ZM494 514c6-3 11-1 15 3 5 6 6 15 2 22-2 5-8 11-14 11-5 0-9-4-12-8-3-7-2-14 1-21 2-3 5-6 8-7Z" fill="#000000"/><path d="M533 358c6 2 9 8 10 14 0 8-3 16-7 22-3 3-7 4-10 1-4-3-2-10-2-15l-13 10c-6 4-13 7-20 9-9 4-19 5-30 8l-25 8c-8 3-15 8-22 12l-25 17c-5 3-8 7-11 12-2-4-1-8 1-11a401 401 0 0 1 35-29c16-13 36-21 55-28l28-11c8-4 14-11 21-16 5-2 10-4 15-3ZM626 376l6 7c17 7 33 7 49 16 4 2 7 6 9 10s1 8-2 12l-16-6c-12-6-24-7-36-11-7-3-14-4-19-10-4 8-4 17-8 26-1 1-1 4-4 3l-1-8 2-11c1-8 4-16 7-23 2-6 8-8 13-5Z" fill="#000000"/><path d="M594 572a37 37 0 0 1 19 29c0 9-5 18-13 22l-17 7c-4 1-6 2-9 0-2-3-1-4 1-6 6-5 15-7 21-12 3-2 5-5 5-9 0-10-5-17-7-26v-5Z" fill="#000000"/><path d="M476 660c3 0 5 2 7 4l13 7c11 5 23 8 34 11 15 5 30 6 45 6 12 1 23 2 34 1l4 2c-18 9-41 11-61 10-23-1-46-8-66-18-6-4-13-8-14-16-1-3 1-7 4-7Z" fill="#000000"/><path fill-rule="evenodd" clip-rule="evenodd" d="M720 460c9 0 17 1 26 4 3 1 5 4 4 8l-4 3-3 3-9 4v21l-2 19-1 6c-1 7-2 14-5 21-3 10-10 17-19 22-5 3-10 5-16 6l-4 1c-12 3-25 2-37 1l-15-2c-7-1-14-6-18-12-5-4-6-9-9-15v-1c-3-7-3-15-4-23v-4a74 74 0 0 1 1-16c-8-4-17-3-25-2h-3l-12 5a169 169 0 0 1-8 52c-3 6-7 11-12 16l-1 1c-6 7-15 11-23 14a256 256 0 0 1-89 9l-27-6a53 53 0 0 1-22-17 99 99 0 0 1-18-50c-1-11-2-21-1-32-6-1-11-2-15-6 0-3 2-5 3-7l11-4 2-2c14-5 28-7 42-10l21-2 10-1c16-1 31-2 47-1h10l24 2h3c10 1 20 2 28 6l10 6 6 5 4 5 12 2h5l7 1 12 1 1-5c1-3 2-6 5-9a57 57 0 0 1 26-11l21-4a302 302 0 0 0 18-1l38-2 5 1Zm-20 12h23c-2 9-3 18-3 28l-2 19c0 8-1 17-4 25-1 6-3 11-8 15-7 6-15 8-23 11-11 1-22 1-32-1l-4-1c-6-1-13-3-16-7-5-6-7-14-9-21v-2c-2-14 0-29 2-43l1-8 9-3 8-2c7-3 13-5 20-5 13-3 25-5 38-5Zm-148 18c-3-5-7-7-12-8a554 554 0 0 0-130-1l-27 4-1 10v14c0 12 1 24 4 36 2 6 5 12 9 17l1 3 9 12c5 4 12 7 18 9a153 153 0 0 0 62 0l26-7c7-2 15-5 20-11 5-5 9-13 11-20l3-21 2-13 1-6c1-6 1-12 4-18Z" fill="#000000"/><path d="M473 221a404 404 0 0 1 84 9c11 3 21 5 31 9l35 13c10 3 19 9 29 13l16 6 29 6c5 2 9 5 11 10 3 6 2 12 0 18l10 5c5 5 7 12 5 19-2 4-6 7-10 9a99 99 0 0 1-69 8l-44-10-62-17a239 239 0 0 0-163 3l-4 14c-4 16-7 32-8 48v17l-1 8c-3 7-9 14-13 21-12 18-23 37-32 56l-2 14v39c0 5 2 9-1 13-15-2-30-6-46-10-2 0-5 0-7-2l-7-9c-4-3-5-9-7-14-7-21-9-45-9-68 0-28 5-55 10-82 4-15 10-29 17-42 10-20 24-37 40-52 16-16 35-27 56-35a298 298 0 0 1 112-17ZM288 552c10 0 20 3 29 5 4 1 9 3 12 6 3 2 2 6-1 7-9 3-16 0-24-2-6-2-14-4-20-8-2-1-5-4-3-6s5-2 7-2ZM725 669c1 2 1 3-1 5l1-5Z" fill="#000000"/></g><g transform="translate(10 -60)"></g></g></svg>