<svg xmlns="http://www.w3.org/2000/svg" viewBox="0 0 980 980" fill="none" shape-rendering="auto"><metadata xmlns:rdf="http://www.w3.org/1999/02/22-rdf-syntax-ns#" xmlns:xsi="http://www.w3.org/2001/XMLSchema-instance" xmlns:dc="http://purl.org/dc/elements/1.1/" xmlns:dcterms="http://purl.org/dc/terms/"><rdf:RDF><rdf:Description><dc:title>Lorelei</dc:title><dc:creator>Lisa Wischofsky</dc:creator><dc:source xsi:type="dcterms:URI">https://www.figma.com/community/file/1198749693280469639</dc:source><dcterms:license xsi:type="dcterms:URI">https://creativecommons.org/publicdomain/zero/1.0/</dcterms:license><dc:rights>Remix of „Lorelei” (https://www.figma.com/community/file/1198749693280469639) by „Lisa Wischofsky”, licensed under „CC0 1.0” (https://creativecommons.org/publicdomain/zero/1.0/)</dc:rights></rdf:Description></rdf:RDF></metadata><mask id="viewboxMask"><rect width="980" height="980" rx="0" ry="0" x="0" y="0" fill="#fff" /></mask><g mask="url(#viewboxMask)"><rect fill="#b6e3f4" width="980" height="980" x="0" y="0" /><g transform="translate(10 -60)"><path fill-rule="evenodd" clip-rule="evenodd" d="M668 255a406 406 0 0 0-207-40c-18 2-36 4-53 11-20-2-39 2-58 9-11 4-21 8-31 14a206 206 0 0 0-79 85l-10 16-15 27c-8 18-14 35-18 54l-7 40-5 32a625 625 0 0 1-31 109l-6 19c-8 26-14 54-15 81-1 22 2 45 11 65 5 10 12 20 21 27 9 6 19 8 30 9l10 14 7 10 7 10c8 9 18 16 28 21h9c3-2 3-6 4-9v-24c15 16 36 29 59 31 12-1 25-2 37-5 2-1 4 0 6 1h2c11 6 24 10 37 9 3 0 6-1 8-3 1-2 1-3-1-5-6-3-10-7-15-12 32-8 65-13 98-11 26 1 52 6 77 12l18 3c9 3 17 5 26 5 21 1 42-6 60-17 19-11 36-24 50-41l-11 22-6 8a332 332 0 0 0-7 13c4 0 6-1 9-3l1-1c14-11 25-26 32-42l8-26c9 16 16 33 20 51l1 19a448 448 0 0 0 1 6c0 2 0 5 2 6h4c4-4 8-10 10-15a214 214 0 0 0 8-118l-1-11-5-29-3-19-5-24a766 766 0 0 1-6-38l-2-12v-2l-5-38v-3l-3-42 1-35v-8c2-16 4-34 0-49-2-10-6-19-11-28-4-9-9-18-17-24l-4-1 6 16 5 12c6 20 7 42 6 63l-4-11v-2l-19-53a1549 1549 0 0 0-42-99l-11-22-1-3c-1-2-2-5-5-5ZM197 532l2-20-4 17-1 3c-9 32-19 63-30 94v2c-10 28-17 57-19 87-2 18 0 38 6 55 4 10 10 21 19 28 6 5 13 7 21 9l-2-4a158 158 0 0 1-21-83c1-30 5-59 10-88l6-27 7-34 6-38v-1Z" fill="#000000"/><path d="M486 236c57-2 115 18 159 56a209 209 0 0 1 73 190c-1 4-1 8-4 12l-1-3v-33a215 215 0 0 0-172-206 235 235 0 0 0-270 153c-12 37-14 78-6 116 6-2 12-2 17-2 2 1 5 1 6 3s0 3-1 4l-12 4c-14 3-27 8-37 18a63 63 0 0 0-22 45c0 12 3 24 8 35 8 13 19 24 33 31 18 10 41 13 62 7 2-1 4-2 6-1s3 4 4 6l15 30a215 215 0 0 0 72 63c28 15 59 21 90 26 3 1 8 1 10 4 1 2 0 3-2 4l-11 1a231 231 0 0 1-147-62c5 18 8 36 8 54 0 12-2 23-6 34-5 10-11 18-19 26a196 196 0 0 1-60 43c-1-1 1-2 2-3l17-14c13-12 25-23 35-38a93 93 0 0 0 17-65l-4-39-2-10-12-17c-5-10-11-20-13-31a93 93 0 0 1-96-31 81 81 0 0 1-19-51c0-12 3-23 8-34 9-16 23-29 40-36-8-31-8-62-3-93 8-40 26-77 51-108 45-54 115-87 186-88Z" fill="#000"/><path d="M541 252a214 214 0 0 1 172 206v33c-1 5-2 10-1 15-2 2-3 3-3 5-3 18-1 37 1 55 4 29 6 59 2 88-3 28-13 56-30 79-16 21-38 34-62 43-15 6-30 9-45 13-11 2-22 4-32 8 1 2 4 1 6 2 12 1 24-1 36-2-5 8-8 17-9 26-2 10 2 19 9 26 6 7 15 11 24 14 5 2 11 3 17 3 7 9 13 18 14 30 2 12-1 24-8 34-9 14-22 23-37 30-18 9-38 15-57 18a352 352 0 0 1-192-23c-18-10-38-23-48-42-4-7-8-16-6-24 18-10 33-23 47-38 8-8 14-16 19-26 4-11 6-22 6-34 0-18-3-36-8-54a235 235 0 0 0 147 62l11-1c2-1 3-2 2-4-2-3-7-3-10-4-31-5-62-11-90-26-18-10-36-22-50-37-8-8-16-17-22-26l-15-30c-1-2-2-5-4-6s-4 0-6 1a82 82 0 0 1-95-38c-5-11-8-23-8-35 1-17 9-34 22-45 10-10 23-15 37-18l12-4c1-1 2-2 1-4s-4-2-6-3c-5 0-11 0-17 2-8-38-6-79 6-116a236 236 0 0 1 270-153Z" fill="#ffffff"/><path d="m712 506 3 3 1 13 3 45c3 20 5 40 5 60 0 16-1 32-5 47-6 28-20 56-40 76a174 174 0 0 1-88 46c-1 9-4 16-4 25-1 6 2 10 5 15 8 8 18 14 28 19l18 9c-3 3-8 1-12 2-6 0-12-1-17-3-9-3-18-7-24-14-7-7-11-16-9-26 1-9 4-18 9-26-12 1-24 3-36 2-2-1-5 0-6-2 10-4 21-6 32-8 15-4 30-7 45-13 24-9 46-22 62-43 17-23 27-51 30-79 4-29 2-59-2-88-2-18-4-37-1-55 0-2 1-3 3-5ZM262 566c6 0 12 1 15 6 2 3 2 7 1 10-3 8-9 14-11 22-1 4 0 7 3 9 7 5 16 7 24 10l-2 2h-11c-6-1-12-2-17-5-5-4-9-11-7-18 2-9 9-15 12-23-7-4-14-2-20-8 3-4 8-6 13-5Z" fill="#000"/><path d="M681 473c6 2 12 7 15 13 2 3 2 6 0 9-2 4-8 6-12 3-4-2-6-6-9-9-7-3-13-2-19 0 3 3 6 6 7 10 4 12 3 25-2 36l10-5c0 4 0 7-2 11-5 6-13 10-20 11-9 1-17 2-25-2-4-3-5-7-5-11l-2-10c0-7 3-13 6-19 7-14 18-26 31-33 8-4 18-6 27-4ZM456 484c27 1 53 17 65 41 2 3 3 6 1 10-3-1-4-3-6-6-6-9-13-17-22-23-10-6-22-9-34-9 6 10 9 21 8 32-1 9-4 19-12 26 4 1 7 2 9 4-6 3-13 3-20 1-9-2-17-6-25-11-8-6-16-13-20-23l-4-8c-2-4-1-8 2-11l10-9c14-10 31-15 48-14Z" fill="#000000"/><path d="M479 386c16 1 33 7 46 17 3 3 7 5 8 9 1 2-1 5-3 4-8-1-15-5-23-7-7-3-15-5-23-5-7-1-15 0-22 1-15 2-30 9-43 16l-21 9-1-1c1-4 3-9 6-12 6-10 17-16 27-21 15-7 32-11 49-10ZM673 390c5 2 11 5 15 10 4 4 5 9 4 15l-23-7c-7-2-13-1-20-2-7 0-15 1-21 5l-13 8h-3c-1-3 0-6 2-8 5-9 13-15 22-18 12-4 24-6 37-3Z" fill="#000000"/><path d="M603 613v1c-4 8-11 15-20 18-3 1-7 1-9-1v-4c7-5 16-9 24-12l5-2Z" fill="#000000"/><path d="M621 668c2-1 4 1 5 3 2 5 1 11 1 16-1 4-2 8-5 11-1 2-3 2-5 3l-2-7 4-20-30 6c-4 0-9 2-13 4-11 6-20 16-29 23-2 2-5 5-9 6-3 0-5-2-4-5 0-4 4-8 6-11 9-9 20-19 32-23 10-3 18 1 27-2l22-4Z" fill="#000000"/><path fill-rule="evenodd" clip-rule="evenodd" d="M669 255a406 406 0 0 0-196-41 247 247 0 0 0-66 12c-14-2-29 0-42 4-26 8-50 24-70 42-33 29-58 65-73 106-8 22-13 45-13 68 0 20 5 40 16 58a74 74 0 0 0 36 30l2 2a741 741 0 0 0-3 53c-2 26-2 53-1 79 2 29 5 60 14 89 5 17 12 34 22 49 14 22 34 39 57 51 15 8 32 15 49 14 3 0 7-1 9-3 1-3-2-4-4-6l-2-1c-14-10-22-24-30-39-14-29-25-60-29-92-4-39-4-79-3-118v-1l1-39 2-61c10-2 19-6 27-11 13-6 24-16 34-26a178 178 0 0 0 55-117l1-22v-3a968 968 0 0 0 150 92 515 515 0 0 0 130 40l3 1 5-1 15-16v-1l2-4c3-25 0-52-8-76-12-39-37-73-69-98v-1c-7-5-13-10-21-13ZM442 373l-6 11-1 4c-12 22-25 43-44 60l-23 16c-6 5-13 8-21 11l-1 6v11l4-2h2c10-4 19-10 27-17 14-11 27-24 37-40 11-15 18-33 23-51l1-3 2-6Z" fill="#000000"/></g><g transform="translate(10 -60)"><path d="M357 396c9-2 18 4 20 12 1 5 1 12-1 17-3 7-11 10-18 9-9 0-16-9-16-18 0-4 2-7 3-11 3-4 8-8 12-9Z" fill="#000000"/><path d="M358 405c7-2 12 3 13 9 2 8-5 15-13 14-7-2-11-10-8-17 2-3 5-5 8-6Z" fill="#fff"/><path fill-rule="evenodd" clip-rule="evenodd" d="M326 398c-2-4-5-7-9-9-5-1-10 1-14 3-4 1-7 4-9 7-11-4-23 0-30 10-3-4-6-7-10-9-3-1-6 0-9 1l-4 1c-6 1-12 3-16 9-4 7-4 16 0 23 2 5 6 8 11 10-7 1-13 5-17 11l-2-1-9-3c-6 0-12 2-17 6-4 4-8 8-10 13-2 7-1 13 1 20-9 8-13 21-6 32 4 7 10 9 17 11 5 1 11 1 16-1 2 6 6 12 11 15 6 3 14 4 21 1 5-1 10-3 13-8 3-3 3-8 4-12 5-2 9-3 13-7 5-4 9-10 10-16s0-12-2-17c-3-6-9-10-15-12 1-5 2-9 1-14l6 2c2 6 4 11 8 15 7 5 15 7 23 6 6 0 11-4 14-9 2-3 3-7 3-11h1c7 1 14 1 19-4 7-6 9-18 6-27-3-8-9-11-17-14 2-7 2-15-2-22Zm-70 51 2-10-10 6 8 4Z" fill="#000000"/><path d="M236 409c3-2 7-2 10-2 7 2 12 9 11 16 0 6-3 11-8 14-9 5-22-2-22-13 0-6 4-13 9-15ZM309 398c5 0 10 3 12 8 4 6 3 14 1 22 6 2 10 6 12 12 3 5 1 12-3 16-5 4-11 5-17 4-2 7-7 13-14 16-5 1-11 0-15-4-5-4-7-10-8-16-4-1-7-1-10-4-5-4-5-12-2-17l8-6c-3-4-5-10-4-15s4-9 9-10c6-1 11 1 16 5 4-6 8-11 15-11ZM257 460c2 8 0 16-3 23 5 0 9 1 13 4 5 4 7 9 7 15 1 5-1 10-6 13-5 4-12 5-18 5 1 5 2 10-1 14-5 7-15 8-22 5-6-3-10-9-12-16-6 2-13 3-19 2-5-1-9-4-11-8-4-5-4-12 0-17l10-7c-4-7-7-17-4-25 1-5 6-9 12-8 6 0 12 3 17 7 3-7 8-14 16-16 8-3 18 0 21 9Z" fill="#fff"/></g></g></svg>